<?xml version="1.0" encoding="UTF-8"?>
<!-- Uploaded to: SVG Repo, www.svgrepo.com, Generator: SVG Repo Mixer Tools -->
<svg width="800px" height="800px" fill="#000000" version="1.1" viewBox="0 0 64 64" xml:space="preserve" xmlns="http://www.w3.org/2000/svg">
    <g>
        <path d="m62.989 2.5618c-0.0765-0.5779-0.6611-0.9805-1.2299-0.8401l-54.355 13.485c-0.3535 0.0879-0.6318 0.3608-0.7256 0.7129s0.0112 0.7275 0.2744 0.9795l13.934 13.358-2.7649 17.15c-0.1079 0.6712 0.4969 1.2576 1.1582 1.1445l18.08-3.1324 17.183 9.6988c0.1523 0.0859 0.3218 0.1289 0.4917 0.1289 0.1523 0 0.3047-0.0347 0.4453-0.1045 0.2969-0.1475 0.5015-0.4331 0.5459-0.7617l6.9639-51.554c0.0119-0.0889 0.0095-0.1774-0.0021-0.2643zm-53.342 14.149 47.244-11.721-34.637 23.808-12.608-12.087zm27.268 26.755-16.594 2.875 2.4995-15.505 36.043-24.774-21.949 37.405zm17.328 9.1841-15.323-8.6492 21.423-36.509-6.1 45.158z"/>
        <path d="m14.444 51.61-4.6948 5.209c-0.3701 0.4102-0.3369 1.0425 0.0732 1.4121 0.1909 0.1724 0.4307 0.2573 0.6689 0.2573 0.2734 0 0.5459-0.1113 0.7432-0.3306l4.6948-5.209c0.3701-0.4102 0.3369-1.0425-0.0732-1.4121-0.4096-0.3691-1.0424-0.3364-1.4121 0.0733z"/>
        <path d="m5.9478 29.056-4.6909 5.2085c-0.3696 0.4106-0.3364 1.043 0.0742 1.4126 0.1909 0.1719 0.4302 0.2568 0.6685 0.2568 0.2739 0 0.5459-0.1113 0.7437-0.3311l4.6909-5.2085c0.3696-0.4106 0.3364-1.043-0.0742-1.4126-0.4113-0.3691-1.0421-0.3364-1.4122 0.0743z"/>
        <path d="m40.816 55.433-4.6909 5.2051c-0.3701 0.4102-0.3369 1.0425 0.0732 1.4121 0.1909 0.1724 0.4307 0.2573 0.6689 0.2573 0.2734 0 0.5459-0.1113 0.7432-0.3306l4.6909-5.2051c0.3701-0.4102 0.3369-1.0425-0.0732-1.4121-0.4097-0.3691-1.0425-0.3364-1.4121 0.0733z"/>
    </g>
</svg>