<?xml version="1.0" encoding="UTF-8"?>
<!DOCTYPE svg  PUBLIC '-//W3C//DTD SVG 1.1//EN'  'http://www.w3.org/Graphics/SVG/1.1/DTD/svg11.dtd'>
<!-- Uploaded to: SVG Repo, www.svgrepo.com, Generator: SVG Repo Mixer Tools -->
<svg width="800px" height="800px" fill="#000000" version="1.1" viewBox="0 0 93.06 93.06" xml:space="preserve" xmlns="http://www.w3.org/2000/svg">
	<g>
		<path d="m11.185 0.08c-6.181 0-11.184 5.012-11.185 11.179 0 6.173 5.003 11.184 11.186 11.184 6.166 0 11.176-5.011 11.176-11.184 0-6.168-5.011-11.179-11.177-11.179z"/>
		<rect x="1.538" y="30.926" width="19.287" height="62.054"/>
		<path d="m69.925 29.383c-9.382 0-15.673 5.144-18.248 10.022h-0.258v-8.479h-18.499v62.053h19.27v-30.698c0-8.093 1.541-15.932 11.575-15.932 9.89 0 10.022 9.256 10.022 16.451v30.178h19.273v-34.036c0-16.707-3.605-29.559-23.135-29.559z"/>
	</g>
</svg>