<svg version="1.1" id="Layer_1" xmlns="http://www.w3.org/2000/svg" xmlns:xlink="http://www.w3.org/1999/xlink" x="0px" y="0px"
	 width="100%" viewBox="0 0 1008 1024" enable-background="new 0 0 1008 1024" xml:space="preserve">
<path fill="#000000" opacity="1.000000" stroke="none" 
	d="
M1009.000000,749.531372 
	C1003.230469,750.797729 1000.158020,756.413574 994.762207,757.934631 
	C990.284607,759.196838 987.160095,761.698425 985.004211,766.242981 
	C983.367493,769.693176 979.492859,772.286438 975.796021,773.446289 
	C968.388672,775.770081 961.089417,778.994080 952.991089,778.366638 
	C951.012024,778.213318 949.010254,778.573547 946.430542,780.113586 
	C950.957886,782.708008 956.440002,781.992493 960.028259,785.501343 
	C958.677673,787.763367 956.924744,786.538574 955.474365,786.289429 
	C946.614868,784.767151 937.794800,783.003784 928.916443,781.608459 
	C925.141113,781.015076 920.912537,779.453918 918.075134,783.939087 
	C917.478027,784.883057 916.342896,784.880432 915.340210,784.631897 
	C908.709534,782.988525 902.172913,784.730347 896.146973,786.617310 
	C879.975220,791.681213 863.852722,791.548889 847.618042,787.981262 
	C836.412537,785.518799 824.892456,785.023193 813.821899,781.469116 
	C805.434692,778.776489 798.451965,774.753662 792.574097,768.243042 
	C781.462158,755.934875 766.950378,748.018250 753.129761,739.479492 
	C723.621033,721.248291 697.057373,699.512695 671.797363,675.859375 
	C657.835754,662.785889 642.259460,651.454712 627.803406,638.886841 
	C609.430786,622.913879 592.700439,605.243591 576.240112,587.326233 
	C570.943176,581.560364 565.515381,575.914551 560.135010,570.225647 
	C559.441284,569.492065 558.659790,568.857056 557.461548,569.036743 
	C555.693359,570.103882 556.199585,571.933350 556.200378,573.502808 
	C556.215088,601.501343 555.695557,629.516052 556.478271,657.494080 
	C557.311462,687.274414 558.727112,717.050903 561.851990,746.726379 
	C563.560425,762.950745 564.078857,779.291809 564.145020,795.624023 
	C564.253479,822.397095 568.673584,848.649170 573.503601,874.871643 
	C575.698181,886.786072 577.351929,898.800537 579.211487,910.775757 
	C579.590698,913.218262 578.719543,915.365295 577.274048,917.308472 
	C573.785583,921.997925 570.077698,926.440857 565.248108,929.889343 
	C563.384094,931.220276 561.006531,932.926147 560.502563,934.883362 
	C557.942505,944.826111 549.131104,946.284668 541.619141,949.584961 
	C541.163574,949.785095 540.538147,949.874817 540.288513,950.226562 
	C535.547913,956.906311 528.564636,957.520752 521.252625,957.469177 
	C519.801086,957.458923 518.301575,958.017883 516.897949,958.520386 
	C511.056702,960.611877 506.860901,959.228760 502.816437,953.915710 
	C502.250702,953.172363 501.299377,952.411194 500.425079,952.265015 
	C494.984772,951.355225 490.502686,948.961731 486.652802,944.919922 
	C484.895721,943.075317 481.172394,943.156189 482.274170,938.903748 
	C482.655182,937.432983 479.962799,936.778320 479.005859,935.560425 
	C478.165802,933.470215 480.723480,932.237854 479.954132,929.913147 
	C476.657227,927.224365 471.902802,925.895813 468.988770,922.097656 
	C468.636230,921.638306 468.553772,920.971619 468.097382,919.717468 
	C472.336151,921.283081 474.626770,925.304443 479.025146,925.421570 
	C480.736206,922.176208 479.292725,919.650452 477.772858,917.019043 
	C471.782349,906.647583 463.149597,898.438171 455.164581,889.763184 
	C440.945923,874.315735 424.977264,860.639648 409.734161,846.230042 
	C406.710846,843.372070 403.422211,840.795227 400.264526,838.078735 
	C397.934509,836.074341 394.811249,834.523682 396.471985,830.418396 
	C396.733826,829.771179 395.964050,828.497009 395.373474,827.747253 
	C389.546783,820.350647 385.756622,811.343567 377.771393,805.636230 
	C376.122192,804.457520 374.097137,803.201965 375.990845,800.380554 
	C376.909302,799.012146 375.317474,797.571960 374.370911,796.501099 
	C372.387939,794.257629 370.199402,792.197144 368.137634,790.021423 
	C367.345764,789.185852 365.870331,787.980896 366.063934,787.385986 
	C368.010559,781.403442 362.768768,778.479187 360.696716,774.254150 
	C358.817566,770.422546 356.476257,766.932983 355.256531,762.653076 
	C353.344635,755.944336 348.355072,750.691040 343.279175,746.388428 
	C338.791351,742.584351 336.333588,737.624573 332.775421,733.352783 
	C329.489502,729.407776 326.821289,724.952515 323.807922,720.774719 
	C321.932404,718.174561 319.499329,716.206421 316.699036,714.595459 
	C314.323853,713.229187 311.683746,711.987244 310.386749,708.199768 
	C314.274200,709.858154 317.414032,711.421326 320.703888,712.545410 
	C324.978546,714.005981 326.925446,712.400757 325.794952,708.031067 
	C324.634094,703.544006 328.314606,703.775208 330.640381,702.198364 
	C329.612396,700.094238 326.352142,699.655273 326.110229,697.024353 
	C327.080963,695.639648 327.995667,696.332703 328.837158,696.776428 
	C336.055634,700.583008 343.245331,704.444397 350.479523,708.220642 
	C355.060181,710.611816 360.821930,709.624207 365.026581,713.613220 
	C362.255585,708.787476 358.996643,704.956726 354.132751,702.608521 
	C352.203583,701.677124 349.262268,701.448303 350.054321,697.555542 
	C350.412048,695.797302 347.525665,694.715576 345.788513,693.819580 
	C341.940918,691.834839 337.973877,690.082764 334.106384,688.134827 
	C332.552795,687.352295 330.570587,686.971558 329.979248,684.542969 
	C332.226959,684.071350 333.824615,685.398682 335.546661,686.156067 
	C340.534698,688.350281 345.037781,691.702026 350.755737,692.161499 
	C352.170776,692.275208 353.686005,693.040100 354.865051,693.902405 
	C368.687500,704.011108 383.735046,712.191650 398.061462,721.496887 
	C408.246033,728.111938 417.840942,735.632263 427.996613,742.294983 
	C443.449982,752.433289 457.650330,764.254517 472.712891,774.906982 
	C473.353577,775.360168 474.146179,775.598633 475.212830,776.098816 
	C477.086395,770.866577 476.432892,765.756592 476.370880,760.701965 
	C475.814850,715.381287 470.141937,670.280762 470.630096,624.909241 
	C470.940247,596.080627 470.203278,567.223145 471.234863,538.425110 
	C472.190247,511.754669 470.668274,485.087952 472.024414,458.456329 
	C473.803101,423.527191 475.862366,388.613464 479.251465,353.787903 
	C480.327179,342.734314 480.562958,331.598938 481.159973,320.914246 
	C479.610809,319.951752 478.752472,320.126099 478.186279,320.772797 
	C473.610992,325.998474 466.887909,328.611969 462.124603,333.326874 
	C452.035553,343.313354 439.020844,349.691193 429.652527,360.471771 
	C428.143005,362.208832 426.255249,363.749023 424.270172,364.918121 
	C415.627197,370.008270 409.944244,378.475800 401.756683,384.193756 
	C395.239807,388.744904 396.247131,393.242859 403.436157,396.746674 
	C404.304840,397.170074 405.180511,397.579193 405.984924,397.962524 
	C406.069794,400.265472 404.226929,400.426605 403.042297,401.085236 
	C400.714661,402.379364 398.023315,403.238037 396.307220,405.312897 
	C388.346039,414.938599 376.664917,416.395325 365.734741,418.000702 
	C353.617371,419.780548 342.566833,414.528076 332.378815,408.099731 
	C328.809143,405.847382 327.053986,402.190582 325.993744,398.248322 
	C324.573578,392.967712 321.217987,388.952789 318.217743,384.525085 
	C313.898621,378.151123 310.518463,370.937317 311.660767,362.657623 
	C311.992676,360.251831 313.402466,359.322723 315.496490,360.392273 
	C320.150055,362.769135 323.425598,359.397491 326.990723,357.724518 
	C330.257812,356.191437 328.611511,352.585266 329.122375,349.993378 
	C329.697876,347.073547 330.721588,346.168457 333.647034,345.391754 
	C347.387970,341.743530 360.066254,335.267670 372.988007,329.529449 
	C391.862427,321.147614 410.829803,312.989471 429.767334,304.756775 
	C440.756927,299.979248 451.420166,294.450745 462.227081,289.253510 
	C463.878693,288.459167 465.431396,287.291107 467.168884,286.871582 
	C475.958618,284.749237 478.989136,279.084534 477.701752,270.520172 
	C477.054169,266.212463 481.094666,264.290070 482.739380,261.142242 
	C484.388397,257.986176 487.380951,255.691940 487.250763,251.466171 
	C487.181427,249.214798 489.563354,248.558411 491.318115,250.130798 
	C497.073700,255.288086 504.758881,257.646576 511.170441,255.814133 
	C518.945496,253.592010 524.159607,255.467712 530.229126,259.298828 
	C532.806580,260.925720 536.760010,260.211884 539.971252,261.023926 
	C552.375793,264.160797 563.069885,269.900269 569.444763,281.650757 
	C571.079041,284.663116 571.459595,287.959015 570.443176,291.348389 
	C568.615723,297.442322 569.309509,304.174347 567.204651,309.961090 
	C561.630676,325.284668 562.051025,341.377167 559.873596,357.117523 
	C558.850403,364.514282 558.771057,372.059326 558.545166,379.545654 
	C557.465271,415.329071 553.263672,450.980621 554.004822,486.837341 
	C554.096130,491.253998 553.410889,495.744629 554.955750,501.260223 
	C559.747681,497.330292 562.622498,492.719788 565.381165,488.255219 
	C567.332031,485.098083 569.795349,482.517914 572.021484,479.661621 
	C595.956299,448.951385 626.593018,425.046967 654.242188,398.106140 
	C683.597412,369.503052 712.051819,339.996490 738.635559,308.750153 
	C744.044067,302.393005 749.279480,295.787811 753.049133,288.412384 
	C755.647888,283.327850 758.350159,277.765869 754.481628,271.341888 
	C750.348389,264.478363 757.326782,255.610458 766.547852,256.323181 
	C775.792297,257.037720 784.943359,258.970703 794.131775,260.392242 
	C795.680786,260.631866 796.810364,261.615997 797.930725,262.654663 
	C803.819519,268.113586 811.155212,270.776276 818.510010,273.548737 
	C831.331787,278.382050 839.637207,288.016754 845.469177,300.052887 
	C846.181213,301.522491 846.040955,303.059174 844.773621,304.193787 
	C838.906860,309.446106 839.238647,317.128082 837.387146,323.834259 
	C836.033142,328.738800 834.165100,332.808777 831.127686,337.005463 
	C825.594849,344.650146 819.276550,349.557648 809.570923,350.169403 
	C806.647156,350.353699 803.875854,352.723267 801.821411,355.315704 
	C800.773376,356.638275 800.010193,358.601624 797.634583,358.228577 
	C796.951294,356.194092 798.677185,355.200562 799.390076,353.821686 
	C799.994690,352.652130 801.113831,351.429321 799.972107,350.199524 
	C798.631653,348.755707 796.841431,349.098877 795.389099,350.083069 
	C792.168274,352.265747 790.035522,355.539062 787.629272,358.486908 
	C785.994751,360.489288 784.446594,361.760803 781.743652,362.475311 
	C776.936707,363.746094 774.085083,368.174713 770.600891,371.416901 
	C762.919495,378.564514 755.650024,386.141418 748.549561,393.886810 
	C736.356812,407.187103 721.672546,417.738220 708.281372,429.722168 
	C696.107483,440.616699 682.121399,448.900482 667.879089,456.973145 
	C655.177063,464.172791 642.559692,471.649780 630.004578,479.160126 
	C624.038940,482.728668 618.104065,486.291412 612.220154,489.997253 
	C609.595154,491.650482 605.653015,491.224915 602.489868,492.853943 
	C600.604553,493.824860 598.290527,494.242554 596.706238,495.671265 
	C588.915283,502.697418 577.804260,502.953766 569.594421,509.192047 
	C566.041077,511.892120 561.783081,513.644043 558.036865,516.116943 
	C554.009583,518.775452 554.384521,521.504456 558.278564,524.132019 
	C564.525391,528.347290 571.584961,530.986816 578.007080,534.814819 
	C582.222107,537.327209 587.076599,536.631104 591.517578,537.986938 
	C604.604980,541.982361 615.427917,550.392639 627.558350,556.239868 
	C631.610657,558.193176 635.087891,561.646851 640.435974,560.067871 
	C642.305115,559.516052 644.304321,561.734436 646.043579,563.002502 
	C670.674805,580.961365 695.243652,599.006165 719.926819,616.893127 
	C727.878052,622.655151 736.080261,628.074829 744.240540,633.542297 
	C748.454773,636.365845 752.119019,639.636902 754.345032,644.274963 
	C755.504333,646.690491 757.698914,647.963318 759.798340,649.257263 
	C769.440674,655.200317 779.085022,661.144653 788.843323,666.893860 
	C796.257385,671.261841 804.842896,671.358765 813.003052,672.574585 
	C846.101990,677.505981 879.288940,681.811035 912.300537,687.376282 
	C934.988281,691.201172 957.647217,694.825317 979.441711,702.616699 
	C989.162781,706.091980 998.175781,711.331055 1008.626343,713.924377 
	C1009.000000,725.687561 1009.000000,737.375122 1009.000000,749.531372 
z"/>
<path fill="#000000" opacity="1.000000" stroke="none" 
	d="
M1009.000000,639.555847 
	C1007.436157,639.137878 1005.943115,638.085388 1004.287659,637.469482 
	C1002.767517,636.903931 1001.412903,636.333435 1001.671631,634.508789 
	C1002.008850,632.130188 1003.856812,632.661255 1005.504761,632.730164 
	C1006.448547,632.769531 1007.408508,632.420471 1008.680603,632.123169 
	C1009.000000,634.370544 1009.000000,636.741150 1009.000000,639.555847 
z"/>
<path fill="#000000" opacity="1.000000" stroke="none" 
	d="
M104.940582,532.760010 
	C102.139267,520.474243 104.279839,509.314117 109.534019,498.486877 
	C111.546822,494.339142 114.422951,493.697876 117.988091,495.595337 
	C120.643143,497.008362 123.019081,497.166595 125.544998,495.772034 
	C129.585602,493.541382 133.828247,493.843475 138.197433,494.382690 
	C143.089172,494.986450 148.071243,496.090546 152.697357,492.977448 
	C153.519836,492.423981 155.069565,492.390228 156.060822,492.742676 
	C161.192917,494.567596 165.830078,492.840179 170.605820,491.245361 
	C188.178452,485.377106 206.247925,481.758331 224.452957,478.325134 
	C239.615097,475.465729 254.184052,469.697327 268.353424,463.391296 
	C271.707825,461.898438 274.479675,461.532288 277.806946,463.024811 
	C282.841064,465.282928 288.174683,465.397186 293.479736,464.116211 
	C298.918030,462.803101 301.086121,459.249512 300.610504,453.673401 
	C300.399994,451.204865 301.081909,449.926453 304.360626,448.727966 
	C311.155060,446.244354 317.099762,448.912109 323.394379,449.486877 
	C325.455536,449.675049 326.874634,448.483337 328.076569,447.062012 
	C331.676941,442.804443 336.619781,441.585449 341.652100,442.243561 
	C349.871613,443.318512 358.009766,445.084595 366.132385,446.795624 
	C369.160767,447.433563 371.790741,449.292847 372.807159,452.326447 
	C374.011841,455.922150 376.410278,458.029938 379.536346,459.910645 
	C387.386658,464.633423 392.129822,472.086426 396.172272,480.005676 
	C398.226135,484.029236 398.472504,488.127838 396.633087,492.511963 
	C392.839935,501.552765 389.109619,510.597992 384.736176,519.395935 
	C380.182831,528.555725 372.492859,530.656067 363.466370,529.515808 
	C359.362427,528.997498 357.295441,530.277344 355.620239,533.739563 
	C353.584412,537.947205 351.988281,542.188354 346.982819,544.625366 
	C343.473358,546.334045 341.915192,551.036926 339.837524,554.656555 
	C322.753693,584.419189 306.142090,614.470886 288.288574,643.765198 
	C280.836914,655.992126 270.536835,666.456177 261.859955,677.968994 
	C246.880814,697.843994 229.295456,715.423889 212.438187,733.589722 
	C205.379318,741.196472 197.540115,748.600098 188.591705,754.379395 
	C188.033051,754.740112 187.458374,755.106934 186.988602,755.569763 
	C177.951218,764.474670 166.330002,769.161682 155.442825,775.086609 
	C147.551605,779.381104 139.948975,784.204895 132.199966,788.762512 
	C130.870819,789.544250 129.668488,791.074280 127.711754,789.840637 
	C128.299316,786.900024 131.792328,786.501404 133.253555,782.790039 
	C127.254684,786.829346 120.817001,787.251648 115.590599,790.788025 
	C108.053879,795.887695 99.858276,796.129883 91.366554,793.857483 
	C91.047058,793.772034 90.640785,793.716064 90.447807,793.495300 
	C83.312347,785.331787 73.469337,784.778442 63.722111,783.898499 
	C63.192734,783.850647 62.717869,783.199036 61.423012,782.239807 
	C68.196114,779.556030 75.411324,780.403076 80.691498,775.152344 
	C85.414009,770.456055 87.742271,763.791077 94.811592,760.168213 
	C87.311813,757.545410 81.247368,765.468262 74.688171,760.253967 
	C75.604111,756.848572 78.826355,755.152283 81.559883,753.324524 
	C92.398575,746.077515 102.155792,737.463623 112.142311,729.174255 
	C129.353058,714.888367 144.375854,698.339905 159.357544,681.799255 
	C171.440430,668.458984 183.169693,654.808350 194.153336,640.534363 
	C207.952194,622.601685 218.965332,602.934998 230.327652,583.439148 
	C245.511887,557.385559 261.084076,531.562500 275.010742,504.798645 
	C276.122040,502.662964 277.644958,500.602051 277.572601,498.382294 
	C276.684479,497.344971 275.802002,497.185303 275.442169,497.683044 
	C269.805328,505.480255 260.212524,506.730896 252.731613,511.464355 
	C239.092255,520.094604 224.065430,526.243591 210.441376,534.917419 
	C203.353165,539.430176 198.414200,545.328613 197.606720,554.085205 
	C197.425629,556.048950 196.685745,557.965027 196.166611,559.893188 
	C192.034622,575.240479 180.762695,581.755371 165.090042,578.699036 
	C158.609070,577.435120 152.033554,576.322449 145.315125,576.096252 
	C130.956604,575.612854 120.720451,568.947998 114.233475,555.664429 
	C110.643814,548.313721 107.029388,541.116150 104.940582,532.760010 
z"/>
<path fill="#000000" opacity="1.000000" stroke="none" 
	d="
M484.047241,74.871536 
	C500.176605,73.527794 512.752563,81.253960 525.415710,88.704575 
	C529.946594,91.370453 533.819519,95.435379 539.663025,95.283653 
	C540.119080,95.271820 540.783997,95.498207 541.016113,95.841118 
	C544.260254,100.633644 548.571533,103.537674 554.492615,103.851990 
	C554.966675,103.877151 555.721069,104.703804 555.796509,105.235809 
	C556.817017,112.431358 563.416565,114.874016 567.653809,119.326523 
	C576.036987,128.135620 584.335693,136.920731 586.492371,149.722107 
	C587.089783,153.268570 584.789734,155.259247 584.090759,158.025650 
	C581.635925,167.740875 575.030273,175.115921 569.056519,182.420425 
	C565.372803,186.924744 558.680176,189.168869 551.943787,188.925400 
	C541.962646,188.564621 532.700684,185.818832 523.772156,181.529510 
	C522.247192,180.796936 520.329834,180.548599 520.153137,178.606750 
	C519.785400,174.566025 515.734253,172.885788 514.558716,169.352524 
	C514.065002,167.868713 512.190186,167.743652 511.096375,168.487930 
	C507.793365,170.735382 504.095123,169.996368 500.520752,170.480896 
	C493.015442,171.498322 485.589722,173.194946 478.655273,176.328201 
	C469.839478,180.311508 462.380096,176.354858 454.821289,172.731705 
	C454.206421,172.436996 453.576630,171.399277 453.582855,170.712524 
	C453.615479,167.102570 451.174194,165.473663 448.535156,163.899796 
	C442.866486,160.519150 441.981323,156.785507 446.010773,151.682953 
	C450.780029,145.643539 454.481689,138.919006 458.817322,132.611191 
	C461.299255,129.000244 460.619354,126.662201 457.119049,124.418304 
	C453.898743,122.353867 451.114319,119.496880 447.723511,117.833855 
	C440.132202,114.110664 437.717651,106.158676 432.826080,100.282936 
	C429.856934,96.716446 433.222717,90.148216 437.165070,87.437080 
	C444.232330,82.576965 451.495605,78.485535 459.882080,76.342957 
	C467.724274,74.339432 475.714844,76.031219 484.047241,74.871536 
z"/>
<path fill="#000000" opacity="1.000000" stroke="none" 
	d="
M986.015930,611.223511 
	C985.907166,612.435852 985.940063,613.290161 985.710571,614.066833 
	C985.086426,616.179321 984.291016,618.641357 981.439697,617.384155 
	C978.871643,616.251953 978.735840,613.824890 979.991455,611.480347 
	C981.116028,609.380493 982.392334,607.227661 985.291260,609.099792 
	C985.729736,609.382935 985.798218,610.238892 986.015930,611.223511 
z"/>
<path fill="#000000" opacity="1.000000" stroke="none" 
	d="
M990.762817,653.322998 
	C989.886414,652.502686 989.210510,651.959473 988.833008,651.256165 
	C987.887756,649.495117 986.947571,647.611450 988.651123,645.798889 
	C989.704895,644.677795 991.050415,644.821228 992.277588,645.584473 
	C994.417236,646.915466 995.657532,648.831604 995.141846,651.386475 
	C994.709412,653.529236 993.305481,654.434814 990.762817,653.322998 
z"/>
<path fill="#000000" opacity="1.000000" stroke="none" 
	d="
M52.882736,785.029480 
	C50.757938,786.913391 48.792778,787.072998 47.013050,785.186829 
	C46.017399,784.131531 45.925930,782.778442 46.869759,781.573608 
	C47.858959,780.310791 49.214653,779.677734 50.790043,780.156982 
	C53.086769,780.855774 53.879902,782.439209 52.882736,785.029480 
z"/>
<path fill="#000000" opacity="1.000000" stroke="none" 
	d="
M441.437134,187.375076 
	C440.997650,184.735107 441.923920,183.535782 444.301453,184.200851 
	C445.481201,184.530869 446.212372,185.698883 445.742432,186.899704 
	C444.863922,189.144455 443.343506,189.271072 441.437134,187.375076 
z"/>
</svg>