<?xml version="1.0" encoding="utf-8"?>
    <!-- Generator: Adobe Illustrator 16.0.0, SVG Export Plug-In . SVG Version: 6.00 Build 0)  -->
    <!DOCTYPE svg PUBLIC "-//W3C//DTD SVG 1.1//EN" "http://www.w3.org/Graphics/SVG/1.1/DTD/svg11.dtd">
    <svg version="1.1" xmlns="http://www.w3.org/2000/svg" xmlns:xlink="http://www.w3.org/1999/xlink" x="0px" y="0px" width="350px"
        height="350px" viewBox="0 0 350 350" style="enable-background:new 0 0 350 350;" xml:space="preserve">
        <g id="JYLogo">
            <path id="roundCornerRect" d="M348,11c0-4.971-4.029-9-9-9H11c-4.971,0-9,4.029-9,9v328c0,4.971,4.029,9,9,9h328
                c4.971,0,9-4.029,9-9V11z"/>
            <path id="LetterJ" style="fill:#FFFFFF;" d="M107.823,328.766c-12.481,0-21.933-1.548-28.895-4.731
                c-9.518-4.354-14.977-12.316-14.977-21.847c0-4.938,1.607-9.611,4.647-13.517c3.69-4.736,8.864-7.343,14.573-7.343
                c3.25,0,6.9,0.644,11.16,1.97c1.896,0.588,4.261,0.888,7.018,0.888c22.638,0,30.271-9.163,34.044-16.055l0.084-0.151
                c3.739-6.604,6.552-13.777,8.358-21.321c1.937-8.093,3.563-18.571,4.836-31.142L164.04,61.226h-49.742
                c-9.319,0-18.723-6.45-18.723-20.86c0-5.457,1.453-10.202,4.32-14.106c3.595-4.906,8.801-7.613,14.651-7.613h74.949
                c11.943,0,19.968,7.809,19.968,19.432v2.023l-0.059,0.592l-18.177,182.935c-1.551,16.016-3.938,29.969-7.095,41.441
                c-3.309,12.023-8.229,23.034-14.628,32.725c-6.968,10.549-16.257,18.495-27.611,23.621
                C131.061,326.294,119.602,328.766,107.823,328.766z"/>
            <path id="LetterK" style="fill:#FFFFFF;" d="M244.051,289.465c-8.555,0-15.221-5.539-17.421-14.464l-13.025-50.365
                c-0.64-2.347-1.54-5.856-2.751-10.722c-1.149-4.6-1.974-7.807-2.445-9.522c-0.461-1.66-1.201-4.188-2.256-7.703
                c-1.108-3.678-1.687-4.783-1.711-4.829c-0.793-1.356-1.848-3.231-3.277-5.825c-0.239-0.433-0.427-0.72-0.549-0.893
                c-1.26-0.795-2.708-1.73-4.304-2.779c-0.462-0.196-2.283-0.839-6.608-0.997c-0.765,8.284-2.825,19.588-3.752,29.426
                c-2.238,23.773-6.104,43.75-7.596,59.928c-1.086,11.401-5.742,18.744-16.508,18.744c-11.251,0-18.811-7.582-18.811-18.867
                c0-0.856,4-1.328,22.899-203.648c1.08-11.385,4.772-18.73,15.6-18.73c11.131,0,18.904,7.354,18.904,17.885v0.554l-6.963,75.273
                c1.562-0.614,3.203-1.529,4.914-2.742c4.388-3.111,8.441-7.292,12.043-12.426c3.971-5.658,7.585-12.059,10.743-19.026
                c6.609-14.278,9.94-27.679,9.94-39.917c0-11.724,7.673-19.602,19.092-19.602s19.091,7.877,19.091,19.602
                c0,19.255-4.839,38.892-14.382,58.366c-7.043,14.375-15.335,26.099-24.745,35.012c5.031,5.921,9.164,13.568,12.354,22.881
                c2.604,7.699,4.843,15.486,6.668,23.187c1.714,7.238,2.873,11.973,3.447,14.077l0.035,0.131l11.603,44.506
                c0.38,1.526,0.542,3.237,0.542,5.721c0,4.897-2.248,9.524-6.33,13.029C254.822,287.874,249.967,289.465,244.051,289.465z"/>
        </g>
    </svg>